<?xml version="1.0" encoding="utf-8"?>
<!-- Generator: Adobe Illustrator 19.2.1, SVG Export Plug-In . SVG Version: 6.00 Build 0)  -->
<svg version="1.1" id="Layer_1" xmlns="http://www.w3.org/2000/svg" xmlns:xlink="http://www.w3.org/1999/xlink" x="0px" y="0px"
	 viewBox="0 0 414 131.8" style="enable-background:new 0 0 414 131.8;" xml:space="preserve">
<style type="text/css">
	.st0{fill:#FFFFFF;}
</style>
<g>
	<g>
		<g>
			<path class="st0" d="M136.3,85.3l1.2-8.1c4.5,0.6,8.2,1,10.6,1c5.4,0,6-1.4,6-2.4c0-3.8-17.6-2-17.6-14.5
				c0-7.6,7.1-11.1,14.7-11.1c4.3,0,8.1,0.7,11.8,2l-1.8,7.8c-3.4-0.8-6.1-1.3-9.7-1.3c-3.7,0-4.4,1.3-4.4,2.1
				c0,4,17.5,2.9,17.5,14.6c0,9.2-9.7,11.5-15.6,11.5C144,86.8,139.9,86.4,136.3,85.3z"/>
		</g>
		<g>
			<path class="st0" d="M169.9,51.1h10.6v2.5c1.4-1.2,5.3-3.4,8.5-3.4c9.6,0,15.4,4.4,15.4,16.8c0,14.6-9.4,19.7-19.6,19.7
				c-1.6,0-3-0.2-4.3-0.3v13.7h-10.6V51.1z M193.7,67.3c0-6.3-2.5-8.1-7.9-8.1c-1.8,0-3.9,0.5-5.3,1v18.1c1,0.1,2.8,0.4,4.5,0.4
				C190.5,78.5,193.7,73.8,193.7,67.3z"/>
		</g>
		<g>
			<path class="st0" d="M210,51.1h10.7v4.7c1.7-2.2,5-5.4,9-5.4c1.9,0,3.3,0.1,4.8,0.6l-1.4,8.8c-2-0.4-2.8-0.4-4.7-0.4
				c-3.1,0-6.3,1.5-7.8,3V86H210V51.1z"/>
		</g>
		<g>
			<path class="st0" d="M235.9,40.2l7.1-7.1l7.2,7.1l-7.2,7.2L235.9,40.2z M237.8,51.1h10.6v35h-10.6V51.1z"/>
		</g>
		<g>
			<path class="st0" d="M255.7,51.1h10.7v3.5c2.1-1.6,6.7-4.4,11.4-4.4c11,0,11.7,6,11.7,14V86h-10.6V65c0-4.8-1.1-5.6-4.7-5.6
				c-3.2,0-6.1,1-7.8,1.9V86h-10.7V51.1z"/>
		</g>
		<g>
			<path class="st0" d="M298.4,75.1V58.9h-5.1v-7.9h5.1v-7.2H309v7.2h10.8v7.9H309v16.1c0,2.6,1,2.8,3.8,2.8c2.4,0,7.6-0.7,7.6-0.7
				l1,8.4c-2.5,0.7-5.9,1.2-8.5,1.2C306.3,86.7,298.4,87.1,298.4,75.1z"/>
		</g>
		<g>
			<path class="st0" d="M323.9,40.2l7.1-7.1l7.2,7.1l-7.2,7.2L323.9,40.2z M325.8,51.1h10.6v35h-10.6V51.1z"/>
		</g>
		<g>
			<path class="st0" d="M340.1,51.1h11.5l5.9,19l1.8,7l2-7l6.5-19H379l-13.6,35h-12.7L340.1,51.1z"/>
		</g>
		<g>
			<path class="st0" d="M379.5,69.1c0-14.3,7.5-18.8,18.1-18.8c11,0,15.2,7.2,15.2,17.7v3.8h-22.7c-0.1,5.5,4.3,6.5,9.9,6.5
				c2.4,0,6.3-0.8,10-1.4l1.6,8.1c-3.9,1.2-8.9,1.7-13.1,1.7C386.9,86.8,379.5,83,379.5,69.1z M401.8,65c0.1-4.2-1.7-7.2-5.2-7.2
				c-3.7,0-6,2.6-6.2,7.2H401.8z"/>
		</g>
	</g>
	<g>
		<g>
			<path class="st0" d="M57.5,130.5c-0.5,0-1-0.1-1.5-0.4L2.7,99c-0.9-0.5-1.5-1.5-1.5-2.5V34.8c0-1,0.6-2,1.5-2.5
				c0.9-0.5,2-0.5,2.9,0l53.2,30.9c0.9,0.5,1.5,1.5,1.5,2.5l0.1,61.8c0,1-0.6,2-1.5,2.5C58.5,130.3,58,130.5,57.5,130.5z M7.1,94.8
				l47.5,27.6l-0.1-55L7.1,39.9V94.8z"/>
		</g>
		<g>
			<path class="st0" d="M84.2,114.9H30.8c-1.6,0-2.9-1.3-2.9-2.9V50.3c0-1.6,1.3-2.9,2.9-2.9h53.3c1.6,0,2.9,1.3,2.9,2.9V112
				C87.1,113.6,85.8,114.9,84.2,114.9z M33.8,109.1h47.5V53.2H33.8V109.1z"/>
		</g>
		<g>
			<path class="st0" d="M57.5,130.5c-0.5,0-1-0.1-1.5-0.4c-0.9-0.5-1.5-1.5-1.5-2.5l-0.1-61.8c0-1,0.6-2,1.5-2.5l53.4-30.9
				c0.9-0.5,2-0.5,2.9,0c0.9,0.5,1.5,1.5,1.5,2.5v61.7c0,1-0.6,2-1.5,2.5l-53.3,31C58.5,130.3,58,130.5,57.5,130.5z M60.3,67.4
				l0.1,55l47.5-27.6V39.9L60.3,67.4z M110.8,96.5L110.8,96.5L110.8,96.5z"/>
		</g>
		<g>
			<path class="st0" d="M57.5,102.9c-0.3,0-0.5,0-0.8-0.1c-0.8-0.2-1.4-0.7-1.8-1.4L28.2,51.7c-0.7-1.4-0.3-3.1,1.1-3.9l52.7-30.4
				c0.7-0.4,2.2-0.3,3-0.1c0.8,0.2,2.5,1.9,2.9,2.6l25.4,47.8c0.7,1.4,0.2,3.1-1.1,3.9l-53.3,31C58.5,102.8,58,102.9,57.5,102.9z
				 M34.7,51.4l23.9,44.5l48.3-28.1L83.3,23.4L34.7,51.4z"/>
		</g>
		<g>
			<path class="st0" d="M57.4,68.7c-0.5,0-1-0.1-1.5-0.4L2.7,37.4c-0.9-0.5-1.5-1.5-1.5-2.5c0-1,0.6-2,1.5-2.5L56,1.4
				c0.9-0.5,2-0.5,2.9,0l53.3,30.9c0.9,0.5,1.5,1.5,1.5,2.5c0,1-0.6,2-1.5,2.5L58.9,68.3C58.4,68.5,57.9,68.7,57.4,68.7z M10,34.8
				l47.4,27.5L105,34.8L57.5,7.3L10,34.8z"/>
		</g>
		<g>
			<line class="st0" x1="110.9" y1="34.8" x2="57.4" y2="65.7"/>
		</g>
	</g>
</g>
</svg>
